<svg xmlns="http://www.w3.org/2000/svg" xmlns:xlink="http://www.w3.org/1999/xlink" xmlns:sketch="http://www.bohemiancoding.com/sketch/ns" viewBox="0 0 100 125" version="1.1" x="0px" y="0px"><title>calendar</title><desc>Created with Sketch.</desc><g stroke="none" stroke-width="1" fill="none" fill-rule="evenodd" sketch:type="MSPage"><g sketch:type="MSArtboardGroup" fill="#000000"><path d="M73.3006053,10.5056412 L71.6046065,10.5056412 L71.6046065,7.82268916 C71.6046065,6.26384432 70.3426842,5 68.78621,5 C67.2297357,5 65.9678134,6.26384432 65.9678134,7.82268916 L65.9678134,10.5056412 L34.0321866,10.5056412 L34.0321866,7.82268916 C34.0321866,6.26384432 32.7702643,5 31.21379,5 C29.6573158,5 28.3953935,6.26384432 28.3953935,7.82268916 L28.3953935,10.5056412 L26.6993947,10.5056412 C16.3869777,10.5056412 8,18.9084981 8,29.2366215 L8,76.272125 C8,86.5971432 16.3869777,95 26.6993947,95 L73.3006053,95 C83.6130223,95 92,86.5971432 92,76.272125 L92,29.2366215 C92,18.9084981 83.6130223,10.5056412 73.3006053,10.5056412 L73.3006053,10.5056412 L73.3006053,10.5056412 Z M28.3953935,15.2132284 L28.3953935,18.7563399 C28.3953935,20.3151848 29.6573158,21.5759238 31.21379,21.5759238 C32.7702643,21.5759238 34.0321866,20.3151848 34.0321866,18.7563399 L34.0321866,15.2132284 L65.9678134,15.2132284 L65.9678134,18.7563399 C65.9678134,20.3151848 67.2297357,21.5759238 68.78621,21.5759238 C70.3426842,21.5759238 71.6046065,20.3151848 71.6046065,18.7563399 L71.6046065,15.2132284 L73.3006053,15.2132284 C81.0240661,15.2132284 87.3057729,21.5013974 87.3057729,29.2366215 L87.3057729,35.3322637 L12.6973276,35.3322637 L12.6973276,29.2366215 C12.6973276,21.5013974 18.9759339,15.2132284 26.6993947,15.2132284 L28.3953935,15.2132284 L28.3953935,15.2132284 Z M73.3006053,90.2955181 L26.6993947,90.2955181 C18.9759339,90.2955181 12.6973276,84.0042439 12.6973276,76.272125 L12.6973276,40.0336404 L87.3057729,40.0336404 L87.3057729,76.272125 C87.3057729,84.0042439 81.0240661,90.2955181 73.3006053,90.2955181 Z M37.7187362,50.3493427 C36.6583493,49.5016044 35.4398346,48.8650243 34.1003986,48.4768657 L34.1003986,45.9212297 L28.3271815,45.9212297 L28.3271815,48.4768657 C26.9877455,48.8650243 25.7692308,49.5016044 24.7088439,50.3493427 L24.7088439,45.9212297 L18.9325262,45.9212297 L18.9325262,50.6257116 L24.3770855,50.6257116 C22.7244943,52.0603457 21.5121807,53.9762964 21.0067917,56.1779319 L18.9325262,56.1779319 L18.9325262,60.8824138 L21.0067917,60.8824138 C21.5121807,63.0840493 22.7213938,65 24.3739849,66.4315288 L18.9325262,66.4315288 L18.9325262,71.1360108 L24.7088439,71.1360108 L24.7088439,66.711003 C25.7692308,67.5587413 26.9877455,68.1984267 28.3271815,68.5865852 L28.3271815,71.1360108 L34.1003986,71.1360108 L34.1003986,68.5865852 C35.4398346,68.1984267 36.6583493,67.5587413 37.7187362,66.711003 L37.7187362,71.1360108 L43.4950539,71.1360108 L43.4950539,66.4315288 L38.0535952,66.4315288 C39.7061863,65 40.9153994,63.0840493 41.4207884,60.8824138 L43.4950539,60.8824138 L43.4950539,56.1779319 L41.4207884,56.1779319 C40.9153994,53.9762964 39.7030858,52.0603457 38.0535952,50.6257116 L43.4950539,50.6257116 L43.4950539,45.9212297 L37.7187362,45.9212297 L37.7187362,50.3493427 Z M31.21379,64.3354725 C28.0171268,64.3354725 25.4157685,61.7332574 25.4157685,58.5286202 C25.4157685,55.3301936 28.0171268,52.7248732 31.21379,52.7248732 C34.4104533,52.7248732 37.0118116,55.3301936 37.0118116,58.5286202 C37.0118116,61.7332574 34.4104533,64.3354725 31.21379,64.3354725 Z M47.1133914,45.9212297 L52.8866086,45.9212297 L52.8866086,50.6257116 L47.1133914,50.6257116 L47.1133914,45.9212297 Z M56.5049461,45.9212297 L62.2781633,45.9212297 L62.2781633,50.6257116 L56.5049461,50.6257116 L56.5049461,45.9212297 Z M65.8996014,45.9212297 L71.6728185,45.9212297 L71.6728185,50.6257116 L65.8996014,50.6257116 L65.8996014,45.9212297 Z M75.2911561,45.9212297 L81.0643732,45.9212297 L81.0643732,50.6257116 L75.2911561,50.6257116 L75.2911561,45.9212297 Z M28.3271815,56.1779319 L34.1003986,56.1779319 L34.1003986,60.8824138 L28.3271815,60.8824138 L28.3271815,56.1779319 Z M47.1133914,56.1779319 L52.8866086,56.1779319 L52.8866086,60.8824138 L47.1133914,60.8824138 L47.1133914,56.1779319 Z M56.5049461,56.1779319 L62.2781633,56.1779319 L62.2781633,60.8824138 L56.5049461,60.8824138 L56.5049461,56.1779319 Z M65.8996014,56.1779319 L71.6728185,56.1779319 L71.6728185,60.8824138 L65.8996014,60.8824138 L65.8996014,56.1779319 Z M75.2911561,56.1779319 L81.0643732,56.1779319 L81.0643732,60.8824138 L75.2911561,60.8824138 L75.2911561,56.1779319 Z M47.1133914,66.4315288 L52.8866086,66.4315288 L52.8866086,71.1360108 L47.1133914,71.1360108 L47.1133914,66.4315288 Z M56.5049461,66.4315288 L62.2781633,66.4315288 L62.2781633,71.1360108 L56.5049461,71.1360108 L56.5049461,66.4315288 Z M65.8996014,66.4315288 L71.6728185,66.4315288 L71.6728185,71.1360108 L65.8996014,71.1360108 L65.8996014,66.4315288 Z M75.2911561,66.4315288 L81.0643732,66.4315288 L81.0643732,71.1360108 L75.2911561,71.1360108 L75.2911561,66.4315288 Z M18.9325262,76.6913363 L24.7057434,76.6913363 L24.7057434,81.3958182 L18.9325262,81.3958182 L18.9325262,76.6913363 Z M28.3271815,76.6913363 L34.1003986,76.6913363 L34.1003986,81.3958182 L28.3271815,81.3958182 L28.3271815,76.6913363 Z M37.7187362,76.6913363 L43.4919533,76.6913363 L43.4919533,81.3958182 L37.7187362,81.3958182 L37.7187362,76.6913363 Z M47.1133914,76.6913363 L52.8866086,76.6913363 L52.8866086,81.3958182 L47.1133914,81.3958182 L47.1133914,76.6913363 Z M56.5049461,76.6913363 L62.2781633,76.6913363 L62.2781633,81.3958182 L56.5049461,81.3958182 L56.5049461,76.6913363 Z M65.8996014,76.6913363 L71.6728185,76.6913363 L71.6728185,81.3958182 L65.8996014,81.3958182 L65.8996014,76.6913363 Z M75.2911561,76.6913363 L81.0643732,76.6913363 L81.0643732,81.3958182 L75.2911561,81.3958182 L75.2911561,76.6913363 Z" sketch:type="MSShapeGroup"/></g></g></svg>