<svg xmlns="http://www.w3.org/2000/svg" xmlns:xlink="http://www.w3.org/1999/xlink" version="1.1" x="0px" y="0px" viewBox="0 0 48 60" enable-background="new 0 0 48 48" xml:space="preserve"><g><g><circle fill="#000000" cx="24" cy="24" r="2"/><rect x="14.5" y="23" fill="#000000" width="8.5" height="2"/><rect x="23" y="11.5" fill="#000000" width="2" height="11.5"/></g><path fill="#000000" d="M24,47.5C11,47.5,0.5,37,0.5,24S11,0.5,24,0.5C37,0.5,47.5,11,47.5,24S37,47.5,24,47.5z M24,2.5   C12.1,2.5,2.5,12.1,2.5,24S12.1,45.5,24,45.5c11.9,0,21.5-9.6,21.5-21.5S35.9,2.5,24,2.5z"/><rect x="23" y="5.5" fill="#000000" width="2" height="2"/><rect x="40.5" y="23" fill="#000000" width="2" height="2"/><rect x="23" y="40.5" fill="#000000" width="2" height="2"/><rect x="5.5" y="23" fill="#000000" width="2" height="2"/></g></svg>